<svg width="100" height="100" viewBox="0 0 100 100" fill="none" xmlns="http://www.w3.org/2000/svg">
<g clip-path="url(#clip0_97_3)">
<rect width="100" height="100" fill="white"/>
<rect width="100" height="100" rx="30" fill="#141C26"/>
<path d="M53.0741 17.9621C51.3291 16.4453 48.6725 16.4471 46.9283 17.9646C40.6282 23.4458 33.0032 26.6841 25.0409 27.245C23.2442 27.3715 21.6273 28.5234 21.2307 30.2803C20.4116 33.9086 19.9973 37.6419 20 41.3935C20 61.9214 32.2036 79.2382 48.8917 84.6594C49.6117 84.8933 50.3883 84.8934 51.1084 84.6596C67.7965 79.2419 80 61.9252 80 41.3973C80 36.6623 79.3503 32.0979 78.1462 27.8115C78.065 27.5224 77.8003 27.3245 77.5 27.3245V27.3245C68.3021 27.3245 59.8297 23.8342 53.0741 17.9621Z" fill="#1F8EF5"/>
<path d="M62.7384 50.137C63.9412 50.1556 65.0108 51.068 64.8312 52.2575C63.7425 59.4707 57.517 65 50 65C41.7157 65 35 58.2843 35 50C35 42.5159 40.4811 36.3119 47.6481 35.1833C48.8689 34.9911 49.7744 36.1223 49.8962 37.3521C50.1438 39.8531 51.6708 41.5831 54.5779 42.0377C55.8604 42.2383 56.8777 43.3671 56.8926 44.6651C56.9355 48.3948 59.0232 50.0796 62.7384 50.137Z" stroke="white" stroke-width="2"/>
<circle cx="45.5" cy="56.5" r="2.5" fill="white"/>
<circle cx="42" cy="49" r="2" fill="white"/>
<circle cx="55" cy="57" r="1" fill="white"/>
<circle cx="51.5" cy="50.5" r="1.5" fill="white"/>
<circle cx="46" cy="43" r="1" fill="white"/>
</g>
<defs>
<clipPath id="clip0_97_3">
<rect width="100" height="100" fill="white"/>
</clipPath>
</defs>
</svg>
